<svg xmlns="http://www.w3.org/2000/svg" viewBox="0 0 520 280" width="100%"><style>
    .axis { stroke: #1f2937; stroke-width: 1; }
    .grid { stroke: #e5e7eb; stroke-width: 1; }
    .label { fill: #374151; font: 12px/1.2 DejaVu Sans, Arial; }
    .title { fill: #111827; font: bold 14px/1.2 DejaVu Sans, Arial; }
    </style><rect x="0" y="0" width="520" height="280" fill="#ffffff"/><line x1="40" y1="40.00" x2="480" y2="40.00" class="grid"/><line x1="40" y1="90.00" x2="480" y2="90.00" class="grid"/><line x1="40" y1="140.00" x2="480" y2="140.00" class="grid"/><line x1="40" y1="190.00" x2="480" y2="190.00" class="grid"/><line x1="40" y1="240.00" x2="480" y2="240.00" class="grid"/><line x1="40" y1="240" x2="480" y2="240" class="axis"/><line x1="40" y1="40" x2="40" y2="240" class="axis"/><rect x="46.00" y="173.33" width="61.33" height="66.67" fill="#60a5fa" rx="4" ry="4"/><text x="76.67" y="256.00" text-anchor="middle" class="label">A</text><text x="76.67" y="167.33" text-anchor="middle" class="label">3</text><rect x="119.33" y="84.44" width="61.33" height="155.56" fill="#60a5fa" rx="4" ry="4"/><text x="150.00" y="256.00" text-anchor="middle" class="label">B</text><text x="150.00" y="78.44" text-anchor="middle" class="label">7</text><rect x="192.67" y="128.89" width="61.33" height="111.11" fill="#60a5fa" rx="4" ry="4"/><text x="223.33" y="256.00" text-anchor="middle" class="label">C</text><text x="223.33" y="122.89" text-anchor="middle" class="label">5</text><rect x="266.00" y="40.00" width="61.33" height="200.00" fill="#60a5fa" rx="4" ry="4"/><text x="296.67" y="256.00" text-anchor="middle" class="label">D</text><text x="296.67" y="34.00" text-anchor="middle" class="label">9</text><rect x="339.33" y="151.11" width="61.33" height="88.89" fill="#60a5fa" rx="4" ry="4"/><text x="370.00" y="256.00" text-anchor="middle" class="label">E</text><text x="370.00" y="145.11" text-anchor="middle" class="label">4</text><rect x="412.67" y="106.67" width="61.33" height="133.33" fill="#60a5fa" rx="4" ry="4"/><text x="443.33" y="256.00" text-anchor="middle" class="label">F</text><text x="443.33" y="100.67" text-anchor="middle" class="label">6</text><text x="260.00" y="28.00" text-anchor="middle" class="title">Example SVG Bar Chart</text></svg>